<?xml version="1.0" encoding="UTF-8" standalone="no"?>
<svg
   xmlns:dc="http://purl.org/dc/elements/1.1/"
   xmlns:cc="http://creativecommons.org/ns#"
   xmlns:rdf="http://www.w3.org/1999/02/22-rdf-syntax-ns#"
   xmlns:svg="http://www.w3.org/2000/svg"
   xmlns="http://www.w3.org/2000/svg"
   xmlns:sodipodi="http://sodipodi.sourceforge.net/DTD/sodipodi-0.dtd"
   xmlns:inkscape="http://www.inkscape.org/namespaces/inkscape"
   sodipodi:docname="naam.svg"
   inkscape:version="1.0beta2 (2b71d25, 2019-12-03)"
   id="svg345"
   version="1.1"
   viewBox="0 0 50 21.385345"
   height="21.385345mm"
   width="50mm">
  <defs
     id="defs339" />
  <sodipodi:namedview
     inkscape:window-maximized="0"
     inkscape:window-y="26"
     inkscape:window-x="0"
     inkscape:window-height="874"
     inkscape:window-width="1440"
     fit-margin-bottom="0"
     fit-margin-right="0"
     fit-margin-left="0"
     fit-margin-top="0"
     showgrid="false"
     inkscape:document-rotation="0"
     inkscape:current-layer="layer1"
     inkscape:document-units="mm"
     inkscape:cy="181.9043"
     inkscape:cx="224.16792"
     inkscape:zoom="0.57553619"
     inkscape:pageshadow="2"
     inkscape:pageopacity="0.0"
     borderopacity="1.0"
     bordercolor="#666666"
     pagecolor="#ffffff"
     id="base" />
  <metadata
     id="metadata342">
    <rdf:RDF>
      <cc:Work
         rdf:about="">
        <dc:format>image/svg+xml</dc:format>
        <dc:type
           rdf:resource="http://purl.org/dc/dcmitype/StillImage" />
        <dc:title></dc:title>
      </cc:Work>
    </rdf:RDF>
  </metadata>
  <g
     transform="translate(-0.47361451,-0.51339858)"
     id="layer1"
     inkscape:groupmode="layer"
     inkscape:label="Laag 1">
    <g
       transform="matrix(1.0969938,0,0,1.0969938,1.9712853,20.122437)"
       style="font-size:31.75px;line-height:1.25;font-family:sans-serif;white-space:pre;shape-inside:url(#rect24);fill:#ececec;stroke-width:1.22805"
       id="text22"
       aria-label="AB">
      <path
         inkscape:connector-curvature="0"
         id="path367"
         style="font-style:normal;font-variant:normal;font-weight:normal;font-stretch:normal;font-size:31.75px;font-family:'Bradley Hand';-inkscape-font-specification:'Bradley Hand';fill:#ececec;stroke-width:1.22805"
         d="m 22.6695,0.508 q -0.03175,0.79375 -1.04775,1.11125 l -1.2065,-0.5715 H 20.066 l -0.41275,-0.3175 h -0.508 l -0.381,-0.635 L 18.44675,-0.0635 18.034,-0.79375 17.4625,-1.397 v -0.254 l -0.254,-0.22225 -0.0635,-0.508 -0.41275,-0.381 -0.66675,-1.49225 -0.28575,-0.34925 -0.127,-0.889 L 15.24,-6.0325 14.57325,-6.12775 13.843,-5.715 l -0.15875,-0.15875 -0.508,0.3175 -0.15875,-0.34925 q -0.15875,0.03175 -0.47625,0.03175 -0.34925,0 -0.508,-0.03175 h -0.254 L 11.1125,-5.55625 10.38225,-5.6515 h -0.127 L 9.74725,-5.36575 9.3345,-5.5245 q -0.60325,0 -0.889,-0.127 H 8.28675 l -0.8255,0.381 -0.3175,-0.34925 -0.5715,-0.15875 -0.127,0.09525 q -0.6985,0.92075 -1.016,1.30175 l -0.508,0.127 q -1.2065,1.74625 -1.524,1.87325 l -0.127,0.03175 -1.016,1.23825 h -0.127 l -0.635,0.98425 -1.2065,0.66675 q -0.3175,0.0635 -0.508,0.0635 -0.60325,0 -1.143,-0.4445 l 0.381,-0.79375 v -0.47625 l 0.127,-0.15875 0.0635,-0.635 0.98425,-0.127 0.254,-0.15875 Q 0.8255,-2.413 0.889,-2.8575 1.4605,-3.01625 1.5875,-3.4925 2.44475,-3.937 2.69875,-4.8895 L 3.2385,-5.08 4.03225,-6.25475 q -0.254,-0.34925 -0.381,-0.889 L 4.318,-7.6835 v -0.60325 l 1.23825,0.09525 0.3175,-0.15875 Q 6.0325,-8.89 6.50875,-9.11225 L 6.57225,-9.7155 7.239,-10.06475 q 0.09525,-0.0635 0.34925,-0.15875 v -0.1905 q 0,-0.28575 0.127,-0.508 0.66675,-0.47625 0.6985,-1.30175 l 0.4445,-0.09525 0.15875,-0.28575 0.22225,-0.03175 0.60325,-1.143 0.15875,0.0635 0.254,-0.127 v -0.85725 h 0.22225 q 0.79375,-0.85725 0.79375,-1.11125 l 0.15875,-0.127 -0.15875,-0.47625 q 0.762,-0.92075 1.23825,-0.9525 l 0.60325,-0.508 0.6985,0.6985 0.889,0.47625 0.09525,0.8255 q 0.15875,0.1905 0.254,0.381 0.4445,0.53975 0.508,1.11125 l 0.1905,0.79375 0.47625,0.6985 0.28575,1.04775 0.0635,0.508 0.5715,0.6985 -0.127,0.22225 0.254,0.22225 v 0.635 l 0.0635,0.47625 q -0.09525,0.47625 -0.09525,0.34925 L 17.399,-8.5725 q 0,0 0.1905,0.254 0.41275,-0.03175 0.60325,-0.09525 h 0.9525 q 0.254,0.0635 0.381,0.0635 0.1905,0 0.381,-0.127 Q 20.1295,-8.636 20.574,-8.636 q 0.3175,0 0.9525,0.3175 l 0.9525,0.0635 q 0.0635,0.254 0.0635,0.381 0,0.47625 -0.47625,0.73025 L 21.59,-7.3025 l -0.889,0.635 -0.73025,-0.09525 -0.3175,0.15875 -0.6985,0.0635 v -0.127 l -0.8255,0.1905 -0.03175,0.1905 0.0635,0.73025 0.41275,0.5715 0.0635,0.5715 0.73025,1.016 -0.0635,0.34925 0.28575,0.28575 0.762,1.17475 0.53975,0.53975 0.127,0.254 L 21.59,-0.508 21.81225,0 Z M 14.82725,-8.0645 H 14.7955 l -0.34925,-0.34925 0.381,-0.3175 q -0.254,-0.22225 -0.254,-0.66675 l -0.22225,-0.127 -0.15875,-1.30175 -0.381,-0.53975 -0.09525,-0.53975 -0.0635,-0.127 h -0.22225 l -0.09525,-1.143 -0.28575,-0.41275 -0.15875,-0.0635 -0.09525,-0.127 -0.127,0.22225 -0.762,0.9525 -0.254,0.53975 -0.635,0.5715 -0.127,0.5715 -0.73025,0.3175 q -0.15875,0.9525 -0.9525,1.36525 l -0.22225,0.635 -0.41275,0.41275 h 0.28575 q 0.5715,0.1905 0.9525,0.1905 h 0.127 q 0.1905,-0.09525 0.381,-0.09525 0.22225,0 0.508,0.127 l 0.127,0.03175 q 0.1905,-0.03175 0.60325,-0.03175 0.508,0 0.762,0.03175 l 1.11125,-0.127 0.73025,0.381 q 0.53975,-0.22225 0.635,-0.4445 0,0.03175 0.03175,0.03175 0,0 0,0.03175 z" />
      <path
         inkscape:connector-curvature="0"
         id="path369"
         style="font-style:normal;font-variant:normal;font-weight:normal;font-stretch:normal;font-size:31.75px;font-family:'Bradley Hand';-inkscape-font-specification:'Bradley Hand';fill:#ececec;stroke-width:1.22805"
         d="m 44.213859,-5.23875 -0.127,0.381 -0.127,0.635 -0.5715,0.47625 -0.127,0.41275 -0.381,0.09525 -0.41275,0.60325 -0.73025,0.15875 -0.635,0.4445 -0.92075,0.09525 -0.47625,0.508 -0.8255,-0.0635 -0.34925,0.28575 -0.4445,-0.0635 q -0.635,0.4445 -1.49225,0.60325 l -0.22225,-0.127 -0.92075,0.66675 -0.34925,-0.1905 -0.22225,0.15875 -0.5715,-0.127 -0.22225,0.127 -0.5715,0.0635 -0.4445,-0.09525 -0.5715,0.47625 L 31.831359,0 v 0.03175 q -0.0635,0.0635 -0.34925,0.15875 l -0.1905,-0.22225 q -0.4445,0.34925 -1.04775,0.34925 -0.0635,0 -0.15875,0 -0.127,-0.03175 -0.1905,-0.03175 l -0.508,0.53975 -0.60325,0.1905 -0.508,-0.28575 -0.127,-0.5715 -0.6985,0.22225 q 0.0635,-0.0635 0.0635,-0.09525 0,-0.03175 0,-0.09525 -0.03175,-0.0635 -0.03175,-0.127 0,-0.09525 0.127,-0.127 l -0.508,-1.016 0.03175,-0.5715 -0.0635,-0.6985 0.15875,-0.508 -0.09525,-0.6985 0.22225,-0.508 -0.127,-0.41275 0.09525,-0.6985 q -0.09525,-0.34925 -0.22225,-0.762 l -0.03175,-0.4445 q -1.04775,-0.53975 -1.17475,-1.016 0.15875,-0.762 0.92075,-1.2065 0.03175,-0.03175 0.34925,-0.22225 l -0.22225,-0.6985 0.254,-0.09525 -0.127,-0.47625 0.09525,-0.127 -0.1905,-0.47625 0.09525,-0.254 -0.03175,-0.73025 -0.381,-0.762 0.0635,-0.3175 -0.1905,-0.127 0.0635,-0.73025 -0.15875,-0.254 -0.22225,-0.762 -0.03175,-0.03175 -0.34925,0.28575 -0.3175,-0.22225 -0.34925,0.22225 -0.127,-0.15875 -0.53975,0.34925 -0.3175,-0.47625 -0.635,0.381 q -1.5875,-0.92075 -1.5875,-1.61925 0,-0.635 0.66675,-0.762 0.3175,-0.508 0.92075,-0.508 h 0.127 l 0.34925,0.15875 0.0635,-0.03175 q 1.397,0 2.032,0.127 0.53975,-0.127 0.9525,-0.127 l 0.15875,0.127 0.22225,-0.0635 0.889,0.3175 1.8415,0.22225 q 0.15875,-0.03175 0.47625,-0.03175 0.41275,0 0.60325,0.0635 l 0.34925,-0.0635 q 0.53975,0.0635 0.85725,0.28575 l 0.254,0.127 q 0.635,0.127 0.85725,0.127 l 0.762,-0.127 0.15875,0.1905 q 0.41275,0 0.73025,0.3175 l 0.92075,0.03175 0.381,0.34925 q 0.41275,0.15875 0.6985,0.15875 l 0.635,0.1905 0.254,0.254 h 0.73025 l 0.1905,0.4445 0.66675,0.41275 0.22225,0.98425 -0.508,0.92075 q -0.6985,0.79375 -1.397,0.92075 l -0.508,0.28575 -0.254,-0.0635 -0.66675,0.4445 q -0.22225,-0.03175 -0.381,-0.03175 l -0.66675,0.22225 -0.0635,-0.03175 -0.41275,0.53975 -0.60325,0.09525 q -0.8255,0.41275 -1.651,0.41275 l -0.635,0.34925 h -0.66675 l -0.53975,0.3175 -0.41275,0.0635 1.11125,0.34925 0.635,-0.09525 1.04775,0.127 1.2065,-0.1905 0.0635,0.127 q 0.22225,-0.03175 0.635,-0.03175 0.762,0 0.98425,0.3175 0.22225,-0.15875 0.508,-0.15875 0.53975,0.1905 0.73025,0.1905 0.22225,0 0.60325,-0.15875 0.41275,0.22225 1.55575,0.22225 l 0.28575,0.15875 q 0.85725,0.127 1.397,0.381 h 0.508 q 0.381,0.381 0.85725,0.381 0.1905,0.1905 1.04775,0.73025 0.47625,0.3175 0.47625,0.6985 z m -7.33425,-7.239 v -0.254 l -0.09525,-0.03175 -0.22225,-0.254 h -0.34925 l -0.3175,-0.15875 q -0.254,-0.0635 -0.4445,-0.127 l -0.34925,0.254 -0.635,-0.47625 -0.53975,-0.15875 -0.22225,0.127 -0.60325,-0.3175 h -0.15875 q -0.3175,0 -1.04775,-0.09525 l -0.73025,0.09525 -0.381,-0.34925 -0.34925,0.0635 -0.127,-0.03175 -0.1905,0.15875 -0.60325,-0.22225 -0.127,0.0635 v 0.762 l 0.22225,0.60325 -0.1905,0.47625 0.1905,0.73025 -0.0635,0.66675 0.1905,0.508 -0.15875,0.53975 v 0.0635 l 0.508,-0.03175 q 0.15875,-0.0635 0.47625,-0.127 l -0.03175,0.09525 0.381,-0.28575 0.0635,-0.254 0.79375,-0.03175 q 0.98425,-0.254 1.27,-0.60325 l 0.381,0.03175 0.15875,-0.127 q 0.508,-0.508 1.0795,-0.508 h 0.127 q 0.15875,0 0.28575,-0.15875 l 0.85725,-0.254 h 0.09525 q 0.34925,-0.28575 0.85725,-0.381 z m 4.54025,7.62 -0.09525,-0.0635 -0.508,-0.0635 -0.127,-0.15875 h -0.15875 l -0.73025,-0.3175 -0.60325,0.0635 -0.28575,-0.254 -0.635,0.0635 q -0.1905,-0.15875 -0.41275,-0.22225 -0.28575,0.15875 -0.53975,0.15875 -0.22225,-0.03175 -0.508,-0.1905 -0.53975,0 -1.17475,-0.09525 l -1.0795,-0.03175 q -0.53975,-0.15875 -0.98425,-0.15875 -0.1905,0 -0.47625,0.0635 l -0.6985,0.15875 -0.47625,-0.3175 -0.03175,0.1905 -1.397,-0.127 q -0.28575,-0.1905 -0.34925,-0.254 -0.53975,0 -0.53975,0.53975 v 0.1905 l -0.03175,0.28575 0.1905,0.4445 -0.15875,0.47625 0.0635,0.22225 -0.0635,0.4445 0.22225,0.381 0.0635,0.60325 -0.22225,0.508 0.03175,0.15875 0.09525,0.0635 0.0635,0.47625 0.889,-0.03175 0.53975,-0.1905 0.92075,0.03175 0.22225,0.09525 q 0.09525,-0.09525 0.3175,-0.15875 l 0.53975,-0.254 0.889,0.03175 0.889,-0.28575 0.762,-0.3175 0.4445,0.03175 0.762,-0.34925 1.0795,-0.0635 q 0.79375,-0.03175 1.17475,-0.53975 l 0.4445,0.03175 0.34925,-0.15875 0.254,-0.34925 0.6985,-0.1905 0.22225,-0.381 z" />
    </g>
  </g>
</svg>
